# xmcd
#
# Track frame offsets: 
#        150
#        10875
#        27274
#        41348
#        63859
#        88203
#        113348
#        135534
#        157744
#        175902
#        197339
#        219679
#        246443
#        264410
#        284578
#        313599
#        342053
#
# Disc length: 4749 seconds
#
# Revision: 0
# Processed by: cddbd v1.5.2PL0 Copyright (c) Steve Scherf et al.
# Submitted via: ExactAudioCopy v0.95b3
#
DISCID=e3128b11
DTITLE=Sacrifice - Apocalypse Inside [CD1] [MR060]
DYEAR=1993
DGENRE=Thrash Metal
TTITLE0=My Eyes See Red
TTITLE1=Apocalypse Inside
TTITLE2=Flesh
TTITLE3=Salvation
TTITLE4=Beneath What You See
TTITLE5=Incarcerated
TTITLE6=Ruins Of The Old
TTITLE7=The Lost
TTITLE8=Freedom Slave
TTITLE9=In Defiance (Rehearsal, 08.02.1990)
TTITLE10=Existence Within Eternity (Rehearsal, 08.02.1990)
TTITLE11=Soldiers Of Misfortune (Rehearsal, 08.02.1990)
TTITLE12=The Lost 1 (Rehearsal, 08.02.1990)
TTITLE13=The Lost 2 (Rehearsal, 08.02.1990)
TTITLE14=The Entity (Live In Tampa, 29.11.1991, Part 1)
TTITLE15=Soldiers Of Misfortune (Live In Tampa, 29.11.1991, Part 1)
TTITLE16=Homicidal Breath (Live In Tampa, 29.11.1991, Part 1)
EXTD=
EXTT0=
EXTT1=
EXTT2=
EXTT3=
EXTT4=
EXTT5=
EXTT6=
EXTT7=
EXTT8=
EXTT9=
EXTT10=
EXTT11=
EXTT12=
EXTT13=
EXTT14=
EXTT15=
EXTT16=
PLAYORDER=
